#!OML:ASF F:\VICON\USERDATA\INSTALL\rory3\rory3.ASF
:FULLY-SPECIFIED
:DEGREES
36
root 0.3609938488062051 17.72125712521151 28.700484939911266 -1.9069440029789364 1.7228095221143023 2.447302672273467
lfemur 26.34097805084764 -5.633545728732262 -26.568251554291013
ltibia 20.299111492762258
lfoot -2.213123732083523 -10.225566917682176
ltoes -20.833677892164044
rfemur -41.42908319473944 3.183169447109404 18.199927497851956
rtibia 26.59173553293557
rfoot -6.8562227878848905 -10.310285299851587
rtoes 0.2714624142039108
lowerback 9.851241571482243 -2.5610013360267794 -5.223167629227996
upperback 0.3056498683752564 -3.927424546577159 2.134289598702587
thorax -5.014384972899034 -1.7469623695776475 5.887714097348821
lowerneck -16.747242433386976 -1.8299794085678174 -2.531264464303056
upperneck 20.998623775441246 -2.0049926902777346 0.44399098494905154
head 9.405472430870724 -1.0543312134640495 0.2627227647241511
lclavicle -8.793706311960229e-16 -7.467110562104555e-16
lhumerus -15.302021709513095 -4.397731352765898 80.17741936487357
lradius 32.326449141407785
lwrist 8.777774354689663
lhand -30.628060010469863 21.457351298481754
lfingers 7.125020000000057
lthumb -3.9236714563401076 51.40720253784955
rclavicle -8.793706311960232e-16 -7.467110562104556e-16
rhumerus -44.64052810994895 -32.43525461281439 -69.63786291427154
rradius 18.385466575944513
rwrist 13.095946298392128
rhand -17.4617740329506 29.176282972602525
rfingers 7.125020000000057
rthumb 8.790524813218864 -7.273388687115048
37
root 0.3605455467762016 17.830293623867075 27.663730536028805 -3.2061695561692525 0.5973754000404021 0.5138939291278981
lfemur 22.780171373010752 -5.224891703007888 -23.275723027254354
ltibia 29.549828284778506
lfoot 7.8282585928614665 -13.790418316495614
ltoes -17.619031441705374
rfemur -36.634604887320606 4.01998694863437 21.448691671305482
rtibia 23.11296755256257
rfoot -7.977811769536066 -7.712679527429831
rtoes 3.086749151509708
lowerback 9.291785346210258 -2.518744086312729 -3.601635976643716
upperback 0.2874140224468689 -3.6586228620408967 2.7471299317519158
thorax -4.81281641956398 -1.6398957080349637 5.47011476696561
lowerneck -16.17932872377534 -1.5880981131360967 -2.382790447213624
upperneck 22.399979681492244 -1.6231298478845244 -0.2941337861752973
head 9.732984293217806 -0.9314612852333701 0.03788626097015496
lclavicle -1.225546644521227e-15 -1.0149402702901172e-15
lhumerus -15.777743716534808 -1.7209054377515005 78.75978362439662
lradius 21.521529709294754
lwrist 4.949635606404119
lhand -30.286168331086873 23.40460275947636
lfingers 7.125020000000056
lthumb -3.5934548074678343 53.3525713273132
rclavicle -1.2255466445212279e-15 -1.0149402702901174e-15
rhumerus -43.14004341503408 -36.58800189043215 -66.88993432312327
rradius 9.11898261113462
rwrist 15.80487547448508
rhand -17.303226321246683 29.116451037737495
rfingers 7.125020000000056
rthumb 8.943571332704161 -8.432811366168893
38
root 0.28177981291593457 18.03442870273574 28.530554873286306 -3.739755651262569 -0.003105288827200403 -0.8487094080560686
lfemur 19.12027824367637 -4.107664258948098 -21.191865041749125
ltibia 44.0976818538305
lfoot 18.65104254569522 -18.595836471696625
ltoes -14.180408063414166
rfemur -33.6200733954885 4.531788925165639 24.23935960579385
rtibia 20.587043869781976
rfoot -6.549986770231666 -5.81282221817561
rtoes 5.362108920599747
lowerback 9.254317163091155 -2.5862212708940437 -2.2921660407744477
upperback 0.13034016706204343 -3.5224653849685525 3.2153469613194003
thorax -5.099741540548285 -1.6056700998376456 5.126987974447364
lowerneck -15.879121386799431 -1.5471703070258327 -2.389940899594901
upperneck 22.6895345904461 -1.5344969292414823 -0.586453965672304
head 9.759035358956814 -0.911637817457198 -0.04144875733860809
lclavicle -1.5242954810798172e-15 -1.2460098118925124e-15
lhumerus -18.877983650142482 -1.4258090799733831 79.52692055842515
lradius 23.46079050763963
lwrist 5.337295578908767
lhand -29.591669931359117 22.536947971848015
lfingers 7.125020000000055
lthumb -2.9228561406976956 52.48500405863565
rclavicle -1.524295481079818e-15 -1.2460098118925124e-15
rhumerus -44.58940546718966 -36.58753741673042 -67.1101673890034
rradius 12.285015621137454
rwrist 14.981551548530483
rhand -17.252074636596458 28.508472446714723
rfingers 7.125020000000055
rthumb 8.992808150121348 -7.745851417592975
39
root 0.2599886184617705 18.208889228060492 27.81212258853605 -4.252471251346351 -0.03233940661016632 -1.160156262399099
lfemur 15.473181686121947 -2.8480577668853693 -20.901829280554384
ltibia 57.849197873461755
lfoot 23.487747582725945 -21.3760844881632
ltoes -9.757584211510679
rfemur -31.854493328548557 4.593994184700257 25.33448986636504
rtibia 15.647105957520417
rfoot -4.935628343029963 -5.571596138851174
rtoes 5.92599900126426
lowerback 9.368983405883448 -2.7396645286710437 -1.7910617907861306
upperback 0.0467484011307886 -3.5990483296208 3.407960451344727
thorax -5.334629305292404 -1.6656677741486456 4.959322629292383
lowerneck -15.61470365772551 -1.6213632526283683 -2.4921033294234114
upperneck 22.95971681814958 -1.6014443389650954 -0.7112655176792888
head 9.802076264151276 -0.9651452548385671 -0.07418574857430393
lclavicle -1.7619169704006697e-15 -1.4301510279905847e-15
lhumerus -21.375065188724353 -2.820525478038416 80.52558110917572
lradius 25.360303476371328
lwrist 5.858233589468908
lhand -28.93857401772456 22.411237423388688
lfingers 7.125020000000054
lthumb -2.292082489755082 52.36608141396833
rclavicle -1.76191697040067e-15 -1.4301510279905847e-15
rhumerus -45.64296483112715 -36.32699380974776 -67.80962582094617
rradius 14.869126350329054
rwrist 13.777344372843569
rhand -17.200112683069342 27.59539254679165
rfingers 7.125020000000054
rthumb 9.043055534420311 -7.569924279608793
40
root 0.318292936905819 18.33318398541814 28.235750939269984 -5.0915399230672955 -0.22354739454586187 -1.731171347338805
lfemur 8.351242990998397 -1.5678920326819807 -19.723822958825853
ltibia 66.72986250947221
lfoot 22.944759185009342 -20.72166836611911
ltoes -3.6446580571652603
rfemur -25.092310679220617 4.997798709690072 26.79641140732103
rtibia 13.992005524271441
rfoot -0.49950699781068963 -4.714943699773252
rtoes 9.055269571448553
lowerback 9.154717839764015 -2.1677674111531022 -0.6667068454857414
upperback 0.04803524757665667 -2.7152860740935525 3.2895927815890755
thorax -5.195940452189715 -1.2708743315493773 4.02630960656086
lowerneck -15.231400767220851 -1.9240499153373192 -2.449987824629397
upperneck 23.764583493869324 -2.0358340244730204 -0.7335734687185447
head 10.008149549205246 -1.17716793010199 -0.14565248526427466
lclavicle -1.5780395818985886e-15 -1.2879143891390308e-15
lhumerus -24.28021080898415 -2.4621976669537893 80.73657893118737
lradius 22.32900519642618
lwrist 4.508047898491162
lhand -28.77720498702039 23.177950406869755
lfingers 7.125020000000055
lthumb -2.136102407091283 53.13741748452414
rclavicle -1.5780395818985894e-15 -1.2879143891390308e-15
rhumerus -42.51595299017884 -35.434624010374534 -68.53022094765181
rradius 14.248195711581722
rwrist 12.941574529524082
rhand -17.001724500625745 26.53332482404694
rfingers 7.125020000000055
rthumb 9.234665622230727 -8.065913362706716
41
root 0.2684832133268263 18.38520761733458 28.749223852114465 -5.932420035149719 -0.4264029874245073 -5.281905785895406
lfemur -7.965766192813539 -0.4418394339923153 -13.349006900559196
ltibia 73.70152832616674
lfoot 18.14507326730987 -16.470937605659294
ltoes -3.3040397428022246
rfemur -9.83670539930359 7.127359284346948 32.45471935832022
rtibia 5.090618556140861
rfoot -7.861834019435102 -5.71711205837149
rtoes 11.805267033769766
lowerback 8.464080891787498 -1.1152434344924669 3.1015748012128843
upperback 0.3415051915964486 -0.8209790106462839 3.6945845365905114
thorax -4.457487808045375 -0.45805415274641914 1.9712164322748915
lowerneck -14.654971227823097 -2.2773791425508474 -2.013526732487347
upperneck 24.490212106796136 -2.5933475369556094 -1.071296960351142
head 10.139357077759088 -1.4537154825658196 -0.38691109797847356
lclavicle -1.580288423411662e-15 -1.289654351259304e-15
lhumerus -28.009879851666252 3.082020434291306 79.01107711673983
lradius 7.065362799198148
lwrist -0.5143040962988437
lhand -29.139509113212075 26.970780658344204
lfingers 7.125020000000055
lthumb -2.486065399524123 56.93133397804173
rclavicle -1.5802884234116623e-15 -1.289654351259304e-15
rhumerus -31.450742862162738 -35.93273996733446 -67.05681135423089
rradius 2.594195952850214
rwrist 15.770963063039183
rhand -16.878308967592453 27.636129148947425
rfingers 7.125020000000055
rthumb 9.35279488206491 -8.48390694841454
